<?xml version="1.0" encoding="UTF-8" standalone="no"?>
<svg
   id="Layer_1"
   viewBox="0 0 512.00002 512.00002"
   version="1.1"
   sodipodi:docname="DL_macOS_logo.svg"
   width="512"
   height="512"
   inkscape:version="1.2.2 (b0a8486541, 2022-12-01)"
   xmlns:inkscape="http://www.inkscape.org/namespaces/inkscape"
   xmlns:sodipodi="http://sodipodi.sourceforge.net/DTD/sodipodi-0.dtd"
   xmlns="http://www.w3.org/2000/svg"
   xmlns:svg="http://www.w3.org/2000/svg">
  <sodipodi:namedview
     id="namedview33"
     pagecolor="#ffffff"
     bordercolor="#000000"
     borderopacity="0.25"
     inkscape:showpageshadow="2"
     inkscape:pageopacity="0.0"
     inkscape:pagecheckerboard="0"
     inkscape:deskcolor="#d1d1d1"
     showgrid="false"
     inkscape:zoom="1.3491177"
     inkscape:cx="226.44429"
     inkscape:cy="319.83866"
     inkscape:window-width="1982"
     inkscape:window-height="1083"
     inkscape:window-x="0"
     inkscape:window-y="0"
     inkscape:window-maximized="1"
     inkscape:current-layer="Layer_1" />
  <defs
     id="defs20">
    <style
       id="style2">.cls-1{fill:#fff;}.cls-2{filter:url(#drop-shadow-1);}.cls-3{fill:url(#linear-gradient);}.cls-4{fill:#0081c6;}</style>
    <linearGradient
       id="linear-gradient"
       x1="317.60999"
       y1="635.22998"
       x2="317.60999"
       y2="0"
       gradientUnits="userSpaceOnUse">
      <stop
         offset="0"
         stop-color="#b3b3b3"
         stop-opacity=".5"
         id="stop4" />
      <stop
         offset="1"
         stop-color="#fff"
         id="stop6" />
    </linearGradient>
    <filter
       id="drop-shadow-1"
       x="106.59"
       y="165.61"
       width="430"
       height="312"
       filterUnits="userSpaceOnUse">
      <feOffset
         dx="4"
         dy="4"
         id="feOffset9" />
      <feGaussianBlur
         result="blur"
         stdDeviation="2"
         id="feGaussianBlur11" />
      <feFlood
         flood-color="#000"
         flood-opacity=".47"
         id="feFlood13" />
      <feComposite
         in2="blur"
         operator="in"
         id="feComposite15"
         result="result1" />
      <feComposite
         in="SourceGraphic"
         in2="result1"
         id="feComposite17" />
    </filter>
    <filter
       id="drop-shadow-1-3"
       x="106.59"
       y="165.61"
       width="430"
       height="312"
       filterUnits="userSpaceOnUse">
      <feOffset
         dx="4"
         dy="4"
         id="feOffset9-6" />
      <feGaussianBlur
         result="blur"
         stdDeviation="2"
         id="feGaussianBlur11-7" />
      <feFlood
         flood-color="#000"
         flood-opacity=".47"
         id="feFlood13-5" />
      <feComposite
         in2="blur"
         operator="in"
         id="feComposite15-3"
         result="result1" />
      <feComposite
         in="SourceGraphic"
         in2="result1"
         id="feComposite17-5" />
    </filter>
  </defs>
  <g
     class="cls-2"
     id="g30"
     style="filter:url(#drop-shadow-1-3)"
     transform="matrix(1.1906977,0,0,1.1906977,-126.91646,-127.19145)">
    <path
       class="cls-4"
       d="m 262.22,360.66 0.18,-71.75 c 0,-1.66 1.24,-3.06 2.89,-3.26 l 91.39,-11.43 53.44,-6.67 91.43,-11.44 c 1.87,-0.23 3.52,1.22 3.52,3.11 v 181.4 c 0,1.94 -1.7,3.45 -3.63,3.21 L 265.42,414.3 c -1.72,-0.21 -3,-1.67 -3,-3.4 v -23.34 l -21.13,2.52 v 37.31 c 0,2.97 2.21,5.47 5.16,5.84 l 273.14,34.16 c 3.51,0.44 6.62,-2.3 6.62,-5.84 V 238.42 c 0,-3.54 -3.1,-6.28 -6.62,-5.84 l -109.46,13.69 -53.44,6.69 -110.24,13.8 c -2.94,0.37 -5.15,2.87 -5.15,5.84 v 90.74"
       id="path26"
       style="fill:#0081c6" />
    <path
       d="m 372.75,275.68 0.08,71.42 c 0,1.38 -1.02,2.54 -2.39,2.71 l -91.88,11.49 -53.44,6.69 -92.57,11.58 c -1.27,0.16 -2.39,-0.83 -2.39,-2.11 V 194.19 c 0,-1.56 1.37,-2.77 2.91,-2.57 l 237.32,29.68 c 1.39,0.17 2.44,1.36 2.44,2.76 v 24.13 l 21.13,-2.63 v -39.33 c 0,-1.87 -1.39,-3.44 -3.24,-3.67 L 113.2,167.85 c -2.21,-0.28 -4.16,1.45 -4.16,3.67 V 399.6 c 0,2.23 1.95,3.95 4.16,3.67 l 111.93,-13.99 53.44,-6.69 112.15,-14.02 c 1.85,-0.23 3.24,-1.81 3.24,-3.67 v -92.08"
       id="path28" />
  </g>
</svg>
